<?xml version="1.0" encoding="UTF-8"?>
<svg width="95px" height="26px" viewBox="0 0 95 26" version="1.1" xmlns="http://www.w3.org/2000/svg" xmlns:xlink="http://www.w3.org/1999/xlink">
    <!-- Generator: Sketch 48.1 (47250) - http://www.bohemiancoding.com/sketch -->
    <title>teleme_logo_white_text</title>
    <desc>Created with Sketch.</desc>
    <defs></defs>
    <g id="Page-1" stroke="none" stroke-width="1" fill="none" fill-rule="evenodd">
        <g id="teleme_logo_white_text">
            <path d="M38.1641952,5.88684707 L37.9003115,7.18612587 C37.8401499,7.48207359 38.0667906,7.75864094 38.3693496,7.75864094 L41.2432621,7.75864094 C41.5472536,7.75864094 41.7742126,8.03790884 41.7113453,8.33480969 L39.3451461,19.5352315 C39.2824379,19.8322912 39.509397,20.1114003 39.8133884,20.1114003 L41.2302112,20.1114003 C41.4565336,20.1114003 41.6516611,19.9533391 41.6984535,19.7323711 L44.1480513,8.13767006 C44.1946845,7.91670212 44.3899712,7.75864094 44.6161344,7.75864094 L47.931869,7.75864094 C48.1594647,7.75864094 48.3555471,7.59851464 48.4007479,7.37595814 L48.6647907,6.07667934 C48.7249524,5.78073162 48.4983117,5.50400541 48.1955935,5.50400541 L38.6330741,5.50400541 C38.4056376,5.50400541 38.209396,5.66413172 38.1641952,5.88684707" id="Fill-15" fill="#FFFFFF"></path>
            <path d="M51.5199227,12.7505149 C51.2776845,12.9540087 50.9617562,13.1060334 50.5810508,13.2022998 C50.1670813,13.3071444 49.6978841,13.3729106 49.18651,13.397692 C48.8498913,13.414213 48.5166148,13.4256506 48.1906596,13.4316871 C48.4322612,12.7714838 48.7472345,12.2593338 49.1301682,11.9054038 C49.5922033,11.4785592 50.1212439,11.271094 50.7478481,11.271094 C50.987699,11.271094 51.1833039,11.2988937 51.3282967,11.3536988 C51.4616709,11.4042149 51.5614629,11.4641034 51.6244894,11.5306638 C51.6905398,11.6008779 51.7363773,11.6756988 51.7642299,11.7589391 C51.7966981,11.8563175 51.8132505,11.9502011 51.8132505,12.038207 C51.8132505,12.3562356 51.719984,12.5826047 51.5199227,12.7505149 M47.6924957,15.3568564 C47.7577504,15.3601924 47.821891,15.3628929 47.8852358,15.3652757 C48.0617418,15.3724242 48.2321998,15.3754425 48.3953366,15.3754425 C50.1989129,15.3754425 51.6036397,15.0882318 52.5706825,14.5217532 C53.6061632,13.9150842 54.1312248,13.0594887 54.1312248,11.9789539 C54.1312248,11.6177166 54.0697899,11.2690289 53.9480342,10.942422 C53.8219812,10.6050131 53.6236706,10.3035054 53.3580362,10.0463184 C53.095585,9.79214967 52.7603986,9.58722613 52.3612308,9.43679001 C51.9679519,9.28889557 51.505121,9.2139158 50.9853116,9.2139158 C50.2660775,9.2139158 49.5573477,9.38754481 48.8780622,9.73003718 C48.2064163,10.0690347 47.5982743,10.5606924 47.0714619,11.1918251 C46.5492652,11.8175568 46.1233589,12.5888 45.8059982,13.4844271 C45.4889558,14.3778302 45.3285248,15.3983177 45.3285248,16.5176132 C45.3285248,17.6909196 45.6312429,18.6289611 46.228403,19.3058442 C46.8384549,19.9975009 47.7404022,20.3482538 48.9094163,20.3482538 C49.5804256,20.3482538 50.2571646,20.2388024 50.9206935,20.0227589 C51.5934536,19.8036972 52.187908,19.4761373 52.6873452,19.048975 L52.6875044,19.048975 C52.8261308,18.9304688 52.8660794,18.7328526 52.7844315,18.5698669 L52.3098229,17.6224529 C52.1965025,17.3965605 51.9033338,17.332224 51.7056598,17.4899675 L51.7055007,17.4899675 C51.4732894,17.6753518 51.1318959,17.8580356 50.6900739,18.0329355 C50.2582787,18.2043405 49.7723699,18.2910756 49.2455576,18.2910756 C48.6768867,18.2910756 48.2778781,18.1220534 48.0254538,17.7743188 C47.7478826,17.3919537 47.607028,16.87615 47.607028,16.2413636 C47.607028,16.0850498 47.6192831,15.9015718 47.6437934,15.6955362 C47.6566852,15.5867202 47.6729193,15.4736152 47.6924957,15.3568564" id="Fill-17" fill="#FFFFFF"></path>
            <path d="M57.8442651,18.1892333 C57.6914736,18.2175096 57.4930038,18.2319655 57.2544263,18.2319655 C57.2413753,18.2319655 57.2342132,18.230218 57.2241863,18.2194159 C57.2237088,18.2187805 57.1778714,18.1541263 57.1778714,17.9185436 C57.1778714,17.7992432 57.1953787,17.6386403 57.2302343,17.4413418 L59.6408384,5.98277988 C59.6927239,5.73607735 59.5041219,5.50398953 59.2513793,5.50398953 L57.7683468,5.50398953 C57.5805406,5.50398953 57.4181996,5.63536299 57.379206,5.81884105 L54.9273799,17.3646146 C54.8419122,17.7766857 54.8005312,18.1193369 54.8005312,18.4119487 C54.8005312,19.1058293 54.992953,19.6038412 55.3725443,19.8921639 C55.7190309,20.1555462 56.1726306,20.2891436 56.720611,20.2891436 C56.8670362,20.2891436 57.0325603,20.2781826 57.2127269,20.2567371 C57.3825483,20.2364036 57.5522105,20.2124165 57.723146,20.185411 C57.9044268,20.1561816 58.0834793,20.1159912 58.2553697,20.0659517 C58.4419027,20.0119409 58.6094958,19.9437919 58.7530562,19.8638876 C58.8791092,19.7938323 58.9572557,19.6610292 58.9572557,19.5169473 L58.9572557,18.3920918 C58.9572557,18.1158421 58.6815943,17.9239447 58.4218488,18.0195757 L58.4216896,18.0195757 C58.1932982,18.1036102 57.9992848,18.1606394 57.8442651,18.1892333" id="Fill-19" fill="#FFFFFF"></path>
            <path d="M66.6481589,12.7505149 C66.4059207,12.9540087 66.0898333,13.1060334 65.7091278,13.2022998 C65.2953175,13.3071444 64.8262794,13.3729106 64.3145871,13.397692 C63.9779683,13.414213 63.6450102,13.4256506 63.3188958,13.4316871 C63.5604974,12.7714838 63.8753115,12.2593338 64.2585635,11.9054038 C64.7202803,11.4785592 65.24948,11.271094 65.8762435,11.271094 C66.1159351,11.271094 66.3115401,11.2988937 66.4565329,11.3536988 C66.5899071,11.4042149 66.6898582,11.4641034 66.7527255,11.5306638 C66.818776,11.6008779 66.8646135,11.6756988 66.8924661,11.7589391 C66.9249343,11.8563175 66.9413275,11.9502011 66.9413275,12.038207 C66.9413275,12.3562356 66.8482202,12.5826047 66.6481589,12.7505149 M62.820891,15.3568564 C62.8858274,15.3601924 62.9502863,15.3628929 63.0133128,15.3652757 C63.189978,15.3724242 63.3602768,15.3754425 63.5235728,15.3754425 C65.3269899,15.3754425 66.7317167,15.0882318 67.6989187,14.5217532 C68.7342403,13.9150842 69.259461,13.0594887 69.259461,11.9789539 C69.259461,11.6177166 69.1978669,11.2690289 69.0762704,10.942422 C68.9503766,10.6050131 68.7517476,10.3035054 68.4862724,10.0463184 C68.2238212,9.79214967 67.8886348,9.58722613 67.489467,9.43679001 C67.0963472,9.28889557 66.6333572,9.2139158 66.1135478,9.2139158 C65.3944728,9.2139158 64.6854248,9.38754481 64.0064575,9.73003718 C63.3344933,10.0690347 62.7266696,10.5606924 62.1998573,11.1918251 C61.6773422,11.8175568 61.251595,12.5888 60.9340752,13.4844271 C60.617192,14.3778302 60.4566018,15.3983177 60.4566018,16.5176132 C60.4566018,17.6909196 60.7593199,18.6289611 61.35648,19.3058442 C61.9666911,19.9975009 62.8687975,20.3482538 64.0376525,20.3482538 C64.7086618,20.3482538 65.3854008,20.2388024 66.0490889,20.0227589 C66.7218489,19.8036972 67.3161442,19.4761373 67.8157405,19.048975 C67.954367,18.9304688 67.9943156,18.7328526 67.9126676,18.5698669 L67.4380591,17.6224529 C67.3247387,17.3965605 67.03157,17.332224 66.833896,17.4899675 L66.8337369,17.4899675 C66.6015256,17.6753518 66.259973,17.8580356 65.8181509,18.0329355 C65.3865149,18.2043405 64.9006061,18.2910756 64.3736346,18.2910756 C63.8051229,18.2910756 63.4061143,18.1220534 63.1538492,17.7743188 C62.8759596,17.3919537 62.735105,16.87615 62.735105,16.2413636 C62.735105,16.0850498 62.7475193,15.9015718 62.7720296,15.6955362 C62.7849214,15.5867202 62.8011555,15.4736152 62.820891,15.3568564" id="Fill-21" fill="#FFFFFF"></path>
            <path d="M83.9874949,5.6686591 L78.6047778,12.6748203 C78.5996848,12.6811745 78.5950692,12.6880053 78.5910902,12.6949949 L78.4338423,12.965208 C78.3451914,13.1178681 78.1142534,13.0787897 78.0808303,12.9054784 C78.0789204,12.8956293 78.0760556,12.8859392 78.0727133,12.8765667 L75.4962667,5.78128762 C75.436105,5.61496595 75.2775838,5.50408484 75.1004412,5.50408484 L74.0484081,5.50408484 C73.84962,5.50408484 73.6778887,5.64276566 73.6365077,5.83704588 L70.7005236,19.6036188 C70.6448183,19.8650949 70.8445614,20.1114797 71.112424,20.1114797 L72.5477091,20.1114797 C72.7464972,20.1114797 72.9183876,19.97264 72.9596095,19.7783598 L74.7262612,11.4741907 C74.7660506,11.2867413 75.026592,11.268314 75.0926424,11.4481384 L77.0469412,16.7697963 C77.0743163,16.8449349 77.1462557,16.8949744 77.2264712,16.8949744 L77.9479335,16.8949744 C78.0077769,16.8949744 78.0639596,16.8671747 78.1002476,16.819518 L82.1624323,11.4810215 C82.2860979,11.3186712 82.5442519,11.4368597 82.5017567,11.6360644 L80.8033838,19.6036188 C80.7476785,19.8650949 80.9474216,20.1114797 81.2152842,20.1114797 L82.7494063,20.1114797 C82.9481944,20.1114797 83.1199257,19.97264 83.1613067,19.7786775 L86.0972908,6.0121046 C86.1528369,5.75046966 85.953253,5.50408484 85.6852312,5.50408484 L84.3218854,5.50408484 C84.1907394,5.50408484 84.067233,5.56492648 83.9874949,5.6686591" id="Fill-23" fill="#FFFFFF"></path>
            <path d="M92.3005301,12.7505149 C92.0581327,12.9540087 91.7422045,13.1060334 91.361499,13.2022998 C90.9476887,13.3071444 90.4784915,13.3729106 89.9669583,13.397692 C89.6303395,13.414213 89.2972222,13.4256506 88.971267,13.4316871 C89.2128686,12.7714838 89.5276827,12.2593338 89.9107756,11.9054038 C90.3726515,11.4785592 90.9016921,11.271094 91.5284555,11.271094 C91.7683063,11.271094 91.9639113,11.2988937 92.1087449,11.3536988 C92.2421191,11.4042149 92.3420702,11.4641034 92.4049376,11.5306638 C92.4711472,11.6008779 92.5168255,11.6756988 92.5448373,11.7589391 C92.5771463,11.8563175 92.5936987,11.9502011 92.5936987,12.038207 C92.5936987,12.3562356 92.5004323,12.5826047 92.3005301,12.7505149 M88.4731031,15.3568564 C88.5381986,15.3601924 88.6024984,15.3628929 88.665684,15.3652757 C88.84219,15.3724242 89.012648,15.3754425 89.1757848,15.3754425 C90.9793611,15.3754425 92.3840879,15.0882318 93.3512899,14.5217532 C94.3866114,13.9150842 94.9116731,13.0594887 94.9116731,11.9789539 C94.9116731,11.6177166 94.8502381,11.2690289 94.7286416,10.942422 C94.6025886,10.6050131 94.4041188,10.3035054 94.1386436,10.0463184 C93.8761924,9.79214967 93.5408469,9.58722613 93.1416791,9.43679001 C92.7485593,9.28889557 92.2855692,9.2139158 91.765919,9.2139158 C91.0466848,9.2139158 90.337796,9.38754481 89.6586696,9.73003718 C88.9868645,10.0690347 88.3788816,10.5606924 87.8520693,11.1918251 C87.3297134,11.8175568 86.9038071,12.5888 86.5864464,13.4844271 C86.2695632,14.3778302 86.108973,15.3983177 86.108973,16.5176132 C86.108973,17.6909196 86.4116911,18.6289611 87.0088512,19.3058442 C87.6190623,19.9975009 88.5210096,20.3482538 89.6900237,20.3482538 C90.361033,20.3482538 91.037772,20.2388024 91.7013009,20.0227589 C92.374061,19.8036972 92.9685154,19.4761373 93.4679526,19.048975 C93.606579,18.9304688 93.6466868,18.7328526 93.5648797,18.5698669 L93.0904303,17.6224529 C92.9771099,17.3965605 92.6837821,17.332224 92.4861081,17.4899675 C92.2538968,17.6753518 91.9123442,17.8580356 91.4705221,18.0329355 C91.0387269,18.2043405 90.5529773,18.2910756 90.0260058,18.2910756 C89.4574941,18.2910756 89.0583263,18.1220534 88.8060612,17.7743188 C88.5283308,17.3919537 88.3874762,16.87615 88.3874762,16.2413636 C88.3874762,16.0850498 88.3998905,15.9015718 88.4244008,15.6955362 C88.4372926,15.5867202 88.4533675,15.4736152 88.4731031,15.3568564" id="Fill-25" fill="#FFFFFF"></path>
            <g id="Icon" transform="translate(1.000000, 0.000000)">
                <path d="M4.23528388,19.6436549 C6.56689234,19.1823746 9.64751258,18.010215 13.4644338,16.1017544 C13.4644338,16.1017544 13.8791069,15.9358852 13.7961722,15.7700159 C13.7132376,15.6041467 13.3814992,15.7700159 13.3814992,15.7700159 C8.92810808,17.3936481 5.5126358,17.9015175 3.12056838,17.3081382 C2.6305884,15.9428461 2.36363636,14.4712799 2.36363636,12.9373638 C2.36363636,5.79225506 8.15589143,0 15.3010001,0 C22.4461089,0 28.2383639,5.79225506 28.2383639,12.9373638 C28.2383639,20.0824725 22.4461089,25.8747276 15.3010001,25.8747276 C10.6111007,25.8747276 6.50405581,23.3792305 4.23528388,19.6436549 Z M14.2937799,15.5212121 L21.8408293,10.2133971 L16.8647528,15.5212121 L16.8401796,15.5212121 L18.3575758,17.677512 C18.3575758,17.677512 18.4405104,17.7604466 18.4405104,17.7604466 C18.6063796,17.8433812 18.8551834,17.8433812 18.938118,17.677512 L24.0800638,9.0523126 C24.1629984,8.96937799 24.1629984,8.88644338 24.1629984,8.80350877 C24.1629984,8.63763955 23.9971292,8.47177033 23.7483254,8.47177033 L13.8791069,10.3792663 C13.7961722,10.3792663 13.7961722,10.3792663 13.7132376,10.462201 C13.5473684,10.5451356 13.5473684,10.7939394 13.630303,10.9598086 L15.1856204,13.1699964 L14.2937799,15.5212121 Z" id="Combined-Shape" fill="#FFFFFF"></path>
                <path d="M3.19619669,17.408182 C5.14911311,17.7360656 5.99079259,17.4454415 7.13320285,17.0989281 C8.38288599,16.7198126 9.42352455,16.1040993 9.75176121,15.8209271 C9.80860666,15.7715582 9.79302,15.7221894 9.76276355,15.7007652 C9.73709141,15.6830669 9.66924361,15.6942448 9.66924361,15.6942448 C9.66924361,15.6942448 4.04612792,16.1935221 2.10513071,14.3808473 C1.26803555,13.5983977 1.32579786,12.334369 1.32671473,11.8304342 C1.32763159,11.6515886 1.20568892,11.7093408 1.17634933,11.7419429 C-0.191609028,13.2714455 -0.910428969,16.4217366 3.19619669,17.408182" id="Fill-14" fill="#FFFFFF"></path>
                <g id="Group" transform="translate(13.510048, 8.293461)"></g>
            </g>
        </g>
    </g>
</svg>